<svg width="122" height="122" viewBox="0 0 122 122" fill="none" xmlns="http://www.w3.org/2000/svg">
<g clip-path="url(#clip0)">
<path d="M30.8692 60.856L49.83 41.8951L68.8027 60.8661L79.8352 49.8336L49.83 19.8284L19.835 49.8235L30.8692 60.856Z" fill="#F3BA2F"/>
<path d="M53.1921 61.144L72.1546 80.1049L91.1256 61.1339L102.165 72.1613L102.158 72.1681L72.1546 102.172L42.1578 72.1765L42.1426 72.1613L53.1921 61.144Z" fill="#F3BA2F"/>
<path d="M60.9994 122C46.9266 121.992 33.2893 117.119 22.3978 108.207C11.5062 99.2956 4.02999 86.893 1.23559 73.1004C-1.55882 59.3079 0.50041 44.9734 7.06443 32.5252C13.6285 20.077 24.2937 10.2805 37.2534 4.79528C52.1519 -1.45844 68.9225 -1.54738 83.8864 4.54798C98.8503 10.6433 110.786 22.4252 117.074 37.3091C123.362 52.193 123.49 68.9634 117.429 83.9414C111.369 98.9194 99.6146 110.882 84.7453 117.205C77.2333 120.385 69.1567 122.015 60.9994 122ZM60.9994 10.1887C32.9818 10.1887 10.1881 32.9824 10.1881 61C10.1881 89.0176 32.9818 111.811 60.9994 111.811C89.017 111.811 111.811 89.0176 111.811 61C111.811 32.9824 89.017 10.1887 60.9994 10.1887Z" fill="#F3BA2F"/>
</g>
<defs>
<clipPath id="clip0">
<rect width="122" height="122" fill="white"/>
</clipPath>
</defs>
</svg>
