<svg xmlns="http://www.w3.org/2000/svg" xmlns:xlink="http://www.w3.org/1999/xlink" viewBox="0 0 1550.54 519.03"><defs><style>.cls-1{fill:#fff;}.cls-2{fill:url(#linear-gradient);}.cls-3{fill:url(#linear-gradient-2);}</style><linearGradient id="linear-gradient" x1="60.64" y1="92.67" x2="458.4" y2="426.43" gradientUnits="userSpaceOnUse"><stop offset="0" stop-color="#328b31"/><stop offset="1" stop-color="#96cf24"/></linearGradient><linearGradient id="linear-gradient-2" x1="735.54" y1="-32.09" x2="1359.91" y2="491.81" xlink:href="#linear-gradient"/></defs><g id="Layer_2" data-name="Layer 2"><g id="Layer_1-2" data-name="Layer 1"><ellipse class="cls-1" cx="259.52" cy="259.28" rx="239.22" ry="239"/><path class="cls-2" d="M84.4,211.88,212.16,84.23,340,211.92l-47,47-80.81-80.74-80.77,80.69Zm95,95.06.07.07L307.25,434.65,435.05,307l0,0-47-46.92-80.8,80.72-80.77-80.69ZM360.88,498.63c131.55-56,193.16-207.56,137.88-339.3C443.26,27.08,291-35.18,158.59,20.26A259.65,259.65,0,0,0,0,259.22C-.09,402.63,116.2,519,259.74,519A258.38,258.38,0,0,0,360.88,498.63ZM259.74,43.21c119.34,0,216.43,97,216.43,216.23s-97.1,216.24-216.43,216.24-216.43-97-216.43-216.24S140.4,43.21,259.74,43.21Z"/><path class="cls-3" d="M617.41,264.62H724.18v-34.7H658.12V108.69H617.41Zm283.83,0L835.85,108.69H794l-67,155.93h41.82L779.79,237h67.4l10.68,27.59ZM813.83,150.28l21.35,55.61H792Zm135,50.05V108.69H908.14v91.64q0,20.25,8.79,35.48a59,59,0,0,0,24.91,23.47q16.13,8.22,37.48,8.23t37.26-8.23a58,58,0,0,0,24.47-23.47q8.57-15.23,8.56-35.48V108.69h-40.7v91.64q0,14.91-8.12,23.69t-21.25,8.79q-13.34,0-22-8.9T948.85,200.33Zm235.34,2.23-71-93.87h-35.81V264.62h38V171.41l70.74,93.21h35.59V108.69H1184ZM1365,161.63l23.58-28.48a85.05,85.05,0,0,0-28.69-19.68,86.44,86.44,0,0,0-34.26-7.23q-23.58,0-42.6,10.45a78,78,0,0,0-29.92,28.7q-10.89,18.24-10.9,40.93,0,22.91,10.68,41.37a78.08,78.08,0,0,0,29.36,29.14q18.69,10.68,41.82,10.68a83.5,83.5,0,0,0,34.59-7.9,95.05,95.05,0,0,0,30.14-21.24L1365,212.79a63.45,63.45,0,0,1-18.68,13.34,47.17,47.17,0,0,1-20,4.9,40.45,40.45,0,0,1-21.47-5.9,41.75,41.75,0,0,1-15.24-16.23,50.46,50.46,0,0,1,0-46.05,41.77,41.77,0,0,1,15.24-16.24,40.44,40.44,0,0,1,21.47-5.89,43.12,43.12,0,0,1,20.68,5.67A58.06,58.06,0,0,1,1365,161.63Zm41.15,103h40.71V204.78h62.95v59.84h40.7V108.69h-40.7V172.3h-62.95V108.69h-40.71ZM619.41,314h71l-73,89.54v8.29h87.24v-9.52H631.24l72.8-89.7v-8.14H619.41Zm154.66-10.45a56,56,0,0,0-28.18,7.3,55.28,55.28,0,0,0-20.35,19.73A51.83,51.83,0,0,0,718,358a52.61,52.61,0,0,0,7.53,27.5,56.61,56.61,0,0,0,97.07,0,52.7,52.7,0,0,0,7.52-27.5,51.91,51.91,0,0,0-7.52-27.34,55.43,55.43,0,0,0-20.35-19.73A56.07,56.07,0,0,0,774.07,303.59Zm.16,9.52a44.25,44.25,0,0,1,22.5,6,45.47,45.47,0,0,1,16.51,16.29A43.26,43.26,0,0,1,819.38,358a44.06,44.06,0,0,1-6.14,22.73,45.64,45.64,0,0,1-16.51,16.52,43.83,43.83,0,0,1-22.5,6.06,44.47,44.47,0,0,1-22.73-6.06,45.32,45.32,0,0,1-16.59-16.52A44,44,0,0,1,728.76,358a43.17,43.17,0,0,1,6.15-22.57,45.59,45.59,0,0,1,39.32-22.28Zm157.12,82.33-66.66-90.93H853.48V411.87h10.6V321l66.5,90.92h11.21V304.51H931.35Zm44.39,16.43h73.87v-9.52H986.33V362h54.84v-9.53H986.33V314h61.29v-9.53H975.74Z"/></g></g></svg>